<svg xmlns="http://www.w3.org/2000/svg" viewBox="0 0 571.1 373.2"><defs><style>.cls-1{fill:#efefef;}.cls-2{fill:#d621ce;}.cls-14,.cls-15,.cls-19,.cls-2,.cls-20,.cls-21,.cls-22,.cls-23,.cls-24,.cls-3,.cls-4,.cls-5,.cls-6,.cls-7{stroke:#fff;}.cls-10,.cls-11,.cls-12,.cls-13,.cls-14,.cls-15,.cls-19,.cls-2,.cls-20,.cls-21,.cls-22,.cls-23,.cls-24,.cls-3,.cls-4,.cls-5,.cls-6,.cls-7,.cls-8,.cls-9{stroke-miterlimit:10;stroke-width:0.25px;}.cls-3{fill:#8dcc80;}.cls-4{fill:#4fc0d3;}.cls-5{fill:#2473d1;}.cls-6{fill:#f19349;}.cls-7{fill:#d1c37d;}.cls-8{fill:#c5dfc6;stroke:#b4ecb6;}.cls-9{fill:#c3dcf1;stroke:#a4ccee;}.cls-10{fill:#d3d6f3;stroke:#8f96c4;}.cls-11{fill:#e0ddce;stroke:#aeaba1;}.cls-12{fill:#f4d2d0;stroke:#eca5a3;}.cls-13{fill:#f3ceb1;stroke:#e69c6a;}.cls-14,.cls-15{font-size:8px;}.cls-14{font-family:ArialMT, Arial;}.cls-15{font-family:MicrosoftYaHei, Microsoft YaHei;}.cls-16{letter-spacing:-0.02em;}.cls-17{letter-spacing:-0.07em;}.cls-18{letter-spacing:-0.06em;}.cls-19{fill:#2ca6af;}.cls-20{fill:#b7b329;}.cls-21{fill:#bd20c6;}.cls-22{fill:#1fc947;}.cls-23{fill:#ce2034;}.cls-24{fill:#1d8ccb;}</style></defs><title>蜂鸟地图_8.29_5点</title><g id="background"><path id="bg" class="cls-1" d="M2600.1,1412.4l-194.8-194.1H2037v356.9h153.3s9,16.4,26.3,16.4c23.7,0,45.5-31.6,45.5-31.6s17.9,2.2,38.3,3.3c15.9.8,40.4-3.6,40.4-3.6s13.7,22,37.8,25.8c20.8,3,42.2-11.8,42.2-11.8h163.8s21-37.1,23.3-89.7C2609.7,1443.5,2600.1,1412.4,2600.1,1412.4Zm-436.5-12.6h-49.9v-61.6h49.9Zm309.4,63.9c-19,11-44,4-44,4s-33.5-12.5-31-47c2.1-29.6,31-42,31-42l17,13,9.5-14.5s10.5,1.5,21.5,11.5,15,24,15,24l-18,14,3,3,16-3S2492,1452.7,2473,1463.7Z" transform="translate(-2037 -1218.3)"/></g><g id="posi_icon"><path id="posi_zhidadianti" class="cls-2" d="M2212.4,1494a1.4,1.4,0,1,1-1.4-1.4A1.4,1.4,0,0,1,2212.4,1494Z" transform="translate(-2037 -1218.3)"/><path id="posi_zhidadianti-2" data-name="posi_zhidadianti" class="cls-2" d="M2329.8,1478.2a1.4,1.4,0,1,1-1.4-1.4A1.4,1.4,0,0,1,2329.8,1478.2Z" transform="translate(-2037 -1218.3)"/><path id="posi_zhidadianti-3" data-name="posi_zhidadianti" class="cls-2" d="M2531.7,1530.7a1.4,1.4,0,1,1-1.4-1.4A1.4,1.4,0,0,1,2531.7,1530.7Z" transform="translate(-2037 -1218.3)"/><path id="posi_zhidadianti-4" data-name="posi_zhidadianti" class="cls-2" d="M2071.3,1449.7a1.4,1.4,0,1,1-1.4-1.4A1.4,1.4,0,0,1,2071.3,1449.7Z" transform="translate(-2037 -1218.3)"/><path id="posi_zhidadianti-5" data-name="posi_zhidadianti" class="cls-2" d="M2500,1340.3a1.4,1.4,0,1,1-1.4-1.4A1.4,1.4,0,0,1,2500,1340.3Z" transform="translate(-2037 -1218.3)"/><path id="posi_zhidadianti-6" data-name="posi_zhidadianti" class="cls-2" d="M2072,1271.9a1.4,1.4,0,0,1-1.4,1.4,1.4,1.4,0,1,1,0-2.8A1.4,1.4,0,0,1,2072,1271.9Z" transform="translate(-2037 -1218.3)"/><path id="posi_zhidadianti-7" data-name="posi_zhidadianti" class="cls-2" d="M2322.4,1276.1a1.4,1.4,0,1,1-1.4-1.4A1.4,1.4,0,0,1,2322.4,1276.1Z" transform="translate(-2037 -1218.3)"/><path id="posi_men" class="cls-3" d="M2308.2,1555.8a1.4,1.4,0,1,1-1.4-1.4A1.4,1.4,0,0,1,2308.2,1555.8Z" transform="translate(-2037 -1218.3)"/><path id="posi_men-2" data-name="posi_men" class="cls-3" d="M2600,1444.3a1.4,1.4,0,0,1-1.4,1.4,1.4,1.4,0,1,1,0-2.8A1.4,1.4,0,0,1,2600,1444.3Z" transform="translate(-2037 -1218.3)"/><path id="posi_men-3" data-name="posi_men" class="cls-3" d="M2268.2,1225.4a1.4,1.4,0,1,1-1.4-1.4A1.4,1.4,0,0,1,2268.2,1225.4Z" transform="translate(-2037 -1218.3)"/><path id="posi_atm" class="cls-4" d="M2324.3,1550.3a1.5,1.5,0,0,1-1.5,1.4,1.4,1.4,0,0,1,0-2.8A1.5,1.5,0,0,1,2324.3,1550.3Z" transform="translate(-2037 -1218.3)"/><path id="posi_atm-2" data-name="posi_atm" class="cls-4" d="M2292,1550.3a1.4,1.4,0,1,1-1.4-1.4A1.4,1.4,0,0,1,2292,1550.3Z" transform="translate(-2037 -1218.3)"/><path id="posi_wc" class="cls-5" d="M2062.7,1241.6a1.4,1.4,0,1,1-1.4-1.4A1.4,1.4,0,0,1,2062.7,1241.6Z" transform="translate(-2037 -1218.3)"/><path id="posi_dianti" class="cls-6" d="M2478.5,1426.8a1.4,1.4,0,1,1-1.4-1.4A1.4,1.4,0,0,1,2478.5,1426.8Z" transform="translate(-2037 -1218.3)"/><path id="posi_dianti-2" data-name="posi_dianti" class="cls-6" d="M2139.9,1395.3a1.4,1.4,0,1,1-2.8,0,1.4,1.4,0,1,1,2.8,0Z" transform="translate(-2037 -1218.3)"/><path id="posi_dianti-3" data-name="posi_dianti" class="cls-6" d="M2139.9,1334a1.4,1.4,0,1,1-1.4-1.4A1.4,1.4,0,0,1,2139.9,1334Z" transform="translate(-2037 -1218.3)"/><path id="posi_louti" class="cls-7" d="M2070.9,1472.3a1.4,1.4,0,1,1-1.4-1.4A1.4,1.4,0,0,1,2070.9,1472.3Z" transform="translate(-2037 -1218.3)"/><path id="posi_louti-2" data-name="posi_louti" class="cls-7" d="M2315.2,1455.5a1.4,1.4,0,1,1-2.8,0,1.4,1.4,0,0,1,2.8,0Z" transform="translate(-2037 -1218.3)"/><path id="posi_louti-3" data-name="posi_louti" class="cls-7" d="M2553.4,1531.7a1.4,1.4,0,1,1-2.8,0,1.4,1.4,0,1,1,2.8,0Z" transform="translate(-2037 -1218.3)"/><path id="posi_louti-4" data-name="posi_louti" class="cls-7" d="M2510.1,1355.9a1.4,1.4,0,1,1-1.4-1.4A1.4,1.4,0,0,1,2510.1,1355.9Z" transform="translate(-2037 -1218.3)"/><path id="posi_louti-5" data-name="posi_louti" class="cls-7" d="M2321.5,1244.9a1.4,1.4,0,0,1-1.4,1.4,1.4,1.4,0,1,1,0-2.8A1.4,1.4,0,0,1,2321.5,1244.9Z" transform="translate(-2037 -1218.3)"/><path id="posi_louti-6" data-name="posi_louti" class="cls-7" d="M2071.3,1296.1a1.4,1.4,0,1,1-1.4-1.4A1.4,1.4,0,0,1,2071.3,1296.1Z" transform="translate(-2037 -1218.3)"/></g><g id="shop"><path id="kc01f044" class="cls-8" d="M2202.8,1456v71.4s-24-8.2-36.3-32.6c-8.3-16.5-5.9-38.8-5.9-38.8Z" transform="translate(-2037 -1218.3)"/><polygon id="kc01f043" class="cls-8" points="73.7 194.7 73.7 213.5 109 213.6 125.7 194.6 73.7 194.7"/><rect id="kc01f042" class="cls-9" x="258.8" y="96.6" width="15.7" height="12.65"/><rect id="kc01f041" class="cls-9" x="243.1" y="18.7" width="20.9" height="37.81"/><rect id="kc01f040" class="cls-9" x="188.4" y="275.9" width="12.6" height="10.23"/><rect id="kc01f039" class="cls-9" x="188.4" y="237.7" width="31" height="20.45"/><path id="kc01f038" class="cls-10" d="M2370.4,1344.3v32.6h17.5s11.2-10.6,31.1-14.8c13.6-2.9,34.3,1.2,34.3,1.2l17.2-23.4-26.8-34.4h-66v38.8Z" transform="translate(-2037 -1218.3)"/><rect id="kc01f037" class="cls-10" x="243.9" y="260.8" width="24.3" height="20.9"/><rect id="kc01f036" class="cls-10" x="208.8" y="115.5" width="10.6" height="15.85"/><rect id="kc01f035" class="cls-10" x="208.8" y="87.2" width="10.6" height="14.68"/><polygon id="kc01f034" class="cls-11" points="274.6 158.6 333.3 158.6 333.3 126 340.6 126 340.6 87.2 406.7 87.2 352.3 18.7 322.8 18.7 322.8 73.1 302.2 73.1 302.2 84.4 274.6 84.4 274.6 158.6"/><rect id="kc01f033" class="cls-11" x="243.1" y="109.2" width="31.5" height="24.77"/><path id="kc01f032" class="cls-11" d="M2473.4,1373.2s14.6,10.2,20.3,16c7.3,7.5,11.5,22.6,11.5,22.6h61.5s-7.3-19-16.7-29.7-27-19.8-27-19.8l2.5-6.9-6.9-5.8-13.7,25.3-24.9-13.2Z" transform="translate(-2037 -1218.3)"/><polygon id="kc01f031" class="cls-11" points="276.5 182.6 305.4 182.6 305.4 228 281.3 228 281.3 189.1 276.5 189.1 276.5 182.6"/><rect id="kc01f030" class="cls-11" x="208.8" y="101.8" width="10.6" height="13.68"/><path id="kc01f029" class="cls-11" d="M2050.3,1394.4v37.4h35.1v-19.6h16.5s-1.3-4.8-2.5-10.1c-.5-2.6-1.3-7.7-1.3-7.7Z" transform="translate(-2037 -1218.3)"/><polygon id="kc01f028" class="cls-12" points="456.3 307.7 456.3 338.1 400.5 338.1 400.4 307.7 456.3 307.7"/><polygon id="kc01f027" class="cls-12" points="361 338.1 400.5 338.1 400.4 307.7 380.3 276 361 307.7 361 338.1"/><path id="kc01f026" class="cls-12" d="M2390.3,1500s-7.8,17.7-28.2,30.6-47.5,12.1-47.5,12.1V1500Z" transform="translate(-2037 -1218.3)"/><polygon id="kc01f025" class="cls-12" points="219.4 258.1 188.4 258.1 188.4 275.9 201 275.9 201 324.4 218.8 324.4 219.4 258.1"/><rect id="kc01f024" class="cls-12" x="197.5" y="43.8" width="21.8" height="25.55"/><polygon id="kc01f023" class="cls-13" points="243.1 134 274.6 134 274.6 158.6 253.8 158.6 243.1 148.2 243.1 134"/><rect id="kc01f022" class="cls-13" x="243.1" y="96.6" width="15.7" height="12.65"/><polygon id="kc01f021" class="cls-13" points="243.1 56.6 243.1 96.6 274.6 96.6 274.6 84.9 264 84.9 264 56.6 243.1 56.6"/><path id="kc01f020" class="cls-13" d="M2505.2,1411.8s1.5,5.7,1.2,9.3-.2,9.1-.2,9.1h71v-18.4Z" transform="translate(-2037 -1218.3)"/><polygon id="kc01f019" class="cls-13" points="491.7 249.5 491.7 297.1 524.3 297.1 524.3 301.1 532.9 301.1 532.9 338.1 547.5 338.1 547.5 292.2 556.5 290.7 556.5 254.8 509.8 254.8 491.7 249.5"/><polygon id="kc01f018" class="cls-13" points="491.7 249.5 491.7 297.1 450.9 297.1 450.9 251.7 459.2 241.3 491.7 249.5"/><path id="kc01f017" class="cls-13" d="M2425.3,1480.5l-8,13.8,20.1,31.7H2480v-49.9s-11.6,10.6-28.1,10S2425.3,1480.5,2425.3,1480.5Z" transform="translate(-2037 -1218.3)"/><path id="kc01f016" class="cls-13" d="M2335.2,1457.6v42.6h55.1l15-23.9s-5.8-3.9-9-8.8-5.8-9.8-5.8-9.8Z" transform="translate(-2037 -1218.3)"/><path id="kc01f015" class="cls-13" d="M2342.5,1400.9v45.5h43.2s-1.8-12,1.5-21.3,2.9-24.2,2.9-24.2Z" transform="translate(-2037 -1218.3)"/><rect id="kc01f014" class="cls-13" x="243.9" y="281.7" width="17.9" height="42.71"/><rect id="kc01f013" class="cls-13" x="243.9" y="237.7" width="24.3" height="23.16"/><polygon id="kc01f012" class="cls-13" points="243.1 182.6 243.9 237.7 268.1 237.7 268.1 228.3 276.5 228.3 276.5 182.6 243.1 182.6"/><rect id="kc01f011" class="cls-13" x="188.4" y="182.6" width="31" height="55.03"/><path id="kc01f010" class="cls-13" d="M2160.6,1456h64.8v-55.1h-7.5s-18.7.9-36.3,16.7S2160.6,1456,2160.6,1456Z" transform="translate(-2037 -1218.3)"/><path id="kc01f009" class="cls-13" d="M2050.3,1485.7v71.5h116v-26.1s-19.9-11.7-25.9-38c-6.7-29.4,2.4-47.9,2.4-47.9h-54.2v40.5Z" transform="translate(-2037 -1218.3)"/><path id="kc01f008" class="cls-13" d="M2050.3,1394.4h47.8s-.8-5.6-1.3-11.9c-.2-3-.3-9-.3-9h-46.2Z" transform="translate(-2037 -1218.3)"/><path id="kc01f007" class="cls-13" d="M2050.3,1349.2v24.3h46.2s-.1-8.5.4-13.6,1.2-10.7,1.2-10.7Z" transform="translate(-2037 -1218.3)"/><path id="kc01f006" class="cls-13" d="M2050.3,1318.9v30.3h47.8s.3-3,.9-5.9,1-4.3,1-4.3l-21-20.1Z" transform="translate(-2037 -1218.3)"/><rect id="kc01f005" class="cls-13" x="208.8" y="69.3" width="10.6" height="17.84"/><rect id="kc01f004" class="cls-13" x="197.5" y="18.7" width="21.8" height="25.03"/><polygon id="kc01f003" class="cls-13" points="159.4 131.1 219.4 131.1 219.4 157.7 170.4 157.7 159.4 131.1"/><polygon id="kc01f002" class="cls-13" points="104.6 18.4 104.6 94.9 159.4 131.1 208.8 131.4 208.8 69.3 184.4 69.5 184.4 75.8 176.8 75.8 176.8 69.3 169.9 69.3 169.9 43.8 151.7 43.8 151.7 18.4 104.6 18.4"/><polygon id="kc01f001" class="cls-13" points="88.4 98.5 73.7 112 59 98.5 59 18.7 88.4 18.7 88.4 98.5"/></g><g id="text"><g id="_044" data-name="044"><text class="cls-14" transform="translate(121.5 276.6)">APPLE</text></g><g id="_043" data-name="043"><text class="cls-15" transform="translate(91.9 206.1)">三星</text></g><g id="_042" data-name="042"><text class="cls-14" transform="translate(260 105)">042</text></g><g id="_041" data-name="041"><text class="cls-14" transform="translate(246.9 39.8)">041</text></g><g id="_040" data-name="040"><text class="cls-15" transform="translate(178.7 283.1)">晓本烘焙</text></g><g id="_039" data-name="039"><text class="cls-15" transform="translate(179.9 250)">承译轩红酒轩</text></g><g id="_038" data-name="038"><text class="cls-15" transform="translate(367.4 125)">无印良品</text></g><g id="_037" data-name="037"><text class="cls-14" transform="translate(245 273.4)">3D-J<tspan class="cls-16" x="16.9" y="0">P</tspan></text></g><g id="_036" data-name="036"><text class="cls-14" transform="translate(207.4 125.6)">036</text></g><g id="_035" data-name="035"><text class="cls-14" transform="translate(207.4 96.6)">035</text></g><g id="_034" data-name="034"><text class="cls-14" transform="translate(324.1 94.9)">034</text></g><g id="_033" data-name="033"><text class="cls-14" transform="translate(252.2 123.7)">033</text></g><g id="_032" data-name="032"><text class="cls-14" transform="translate(476.4 164.6)">032</text></g><g id="_031" data-name="031"><text class="cls-14" transform="translate(284.3 207.5)">031</text></g><g id="_030" data-name="030"><text class="cls-14" transform="translate(207.4 110.8)">030</text></g><g id="_029" data-name="029"><text class="cls-14" transform="translate(32.4 196.9)">029</text></g><g id="_028" data-name="028"><text class="cls-14" transform="translate(421.6 325)">028</text></g><g id="_027" data-name="027"><text class="cls-14" transform="translate(339.3 309.2)">S<tspan class="cls-17" x="5.3" y="0">T</tspan><tspan x="9.6" y="0">ARBUCKS COFFEE</tspan></text></g><g id="_026" data-name="026"><text class="cls-14" transform="translate(308.8 305.2)">026</text></g><g id="_025" data-name="025"><text class="cls-14" transform="translate(197.2 293.4)">025</text></g><g id="_024" data-name="024"><text class="cls-15" transform="translate(184.5 58.7)">茜丽杯子蛋糕</text></g><g id="_023" data-name="023"><text class="cls-14" transform="translate(241.5 148.4)">NAUTIC<tspan class="cls-18" x="29.8" y="0">A</tspan></text></g><g id="_022" data-name="022"><text class="cls-15" transform="translate(235 105)">半亩秋山</text></g><g id="_021" data-name="021"><text class="cls-14" transform="translate(247.5 78.7)">LOHO</text></g><g id="_020" data-name="020"><text class="cls-15" transform="translate(492.1 204.8)">泰卓龙</text></g><g id="_019" data-name="019"><text class="cls-14" transform="translate(517.6 295.7)">019</text></g><g id="_018" data-name="018"><text class="cls-14" transform="translate(445.3 271.3)">ANNE KAREN</text></g><g id="_017" data-name="017"><text class="cls-14" transform="translate(383 284.9)">REPUBLIC&amp;CO</text></g><g id="_016" data-name="016"><text class="cls-14" transform="translate(326.6 262.7)">016</text></g><g id="_015" data-name="015"><text class="cls-14" transform="translate(313.6 207.5)">HAZZYS</text></g><g id="_014" data-name="014"><text class="cls-14" transform="translate(240.4 305.2)">CASIO</text></g><g id="_013" data-name="013"><text class="cls-14" transform="translate(249.3 251.4)">013</text></g><g id="_012" data-name="012"><text class="cls-14" transform="translate(253.1 212.3)">012</text></g><g id="_011" data-name="011"><text class="cls-14" transform="translate(195.6 212.3)">FIL<tspan class="cls-18" x="11.6" y="0">A</tspan></text></g><g id="_010" data-name="010"><text class="cls-14" transform="translate(149.3 212.3)">010</text></g><g id="_009" data-name="009"><text class="cls-14" transform="translate(63.3 285)">C&amp;<tspan class="cls-18" x="11.1" y="0">A</tspan></text></g><g id="_008" data-name="008"><text class="cls-14" transform="translate(24.9 167.7)">LEVI’S</text></g><g id="_007" data-name="007"><text class="cls-14" transform="translate(15.8 145.1)">KORADIOR</text></g><g id="_006" data-name="006"><text class="cls-15" transform="translate(30.1 118.1)">天意</text></g><g id="_005" data-name="005"><text class="cls-14" transform="translate(207.4 83.4)">005</text></g><text id="_004" data-name="004" class="cls-14" transform="translate(194.7 33.4)">PUCC<tspan class="cls-18" x="22.7" y="0">A</tspan></text><text id="_003" data-name="003" class="cls-14" transform="translate(156.1 146.7)"><tspan class="cls-17">Y</tspan><tspan x="4.7" y="0">ANKEE CANDLE</tspan></text><text id="_002" data-name="002" class="cls-14" transform="translate(141.4 77.7)">UNIQLO</text><text id="_001" data-name="001" class="cls-14" transform="translate(63.1 68.1)"><tspan class="cls-17">V</tspan><tspan x="4.7" y="0">ANS</tspan></text></g><g id="posi"><path id="f044_apple" class="cls-19" d="M2182.9,1491.7a1.4,1.4,0,1,1-1.4-1.4A1.4,1.4,0,0,1,2182.9,1491.7Z" transform="translate(-2037 -1218.3)"/><path id="f043_sx" class="cls-19" d="M2138.4,1422.3a1.4,1.4,0,1,1-1.4-1.4A1.4,1.4,0,0,1,2138.4,1422.3Z" transform="translate(-2037 -1218.3)"/><path id="f042_042" class="cls-20" d="M2305.5,1321.2a1.4,1.4,0,1,1-1.4-1.4A1.4,1.4,0,0,1,2305.5,1321.2Z" transform="translate(-2037 -1218.3)"/><path id="f041_041" class="cls-20" d="M2292,1256a1.4,1.4,0,1,1-1.4-1.4A1.4,1.4,0,0,1,2292,1256Z" transform="translate(-2037 -1218.3)"/><path id="f040_xbhb" class="cls-20" d="M2233.3,1499.2a1.4,1.4,0,1,1-1.4-1.4A1.4,1.4,0,0,1,2233.3,1499.2Z" transform="translate(-2037 -1218.3)"/><path id="f039_cyxhjx" class="cls-20" d="M2242.3,1466.2a1.4,1.4,0,1,1-1.4-1.4A1.4,1.4,0,0,1,2242.3,1466.2Z" transform="translate(-2037 -1218.3)"/><path id="f038_wylp" class="cls-21" d="M2421.9,1341.2a1.5,1.5,0,0,1-1.5,1.4,1.4,1.4,0,0,1,0-2.8A1.5,1.5,0,0,1,2421.9,1341.2Z" transform="translate(-2037 -1218.3)"/><path id="f037_3djp" class="cls-21" d="M2294.4,1489.6a1.4,1.4,0,1,1-1.4-1.4A1.4,1.4,0,0,1,2294.4,1489.6Z" transform="translate(-2037 -1218.3)"/><path id="f036_036" class="cls-21" d="M2252.5,1341.3a1.4,1.4,0,1,1-1.4-1.4A1.4,1.4,0,0,1,2252.5,1341.3Z" transform="translate(-2037 -1218.3)"/><path id="f035_035" class="cls-21" d="M2252.5,1312.8a1.4,1.4,0,1,1-1.4-1.4A1.4,1.4,0,0,1,2252.5,1312.8Z" transform="translate(-2037 -1218.3)"/><path id="f034_034" class="cls-22" d="M2369.2,1311a1.4,1.4,0,1,1-2.8,0,1.4,1.4,0,0,1,2.8,0Z" transform="translate(-2037 -1218.3)"/><path id="f033_033" class="cls-22" d="M2297.3,1339.9a1.4,1.4,0,1,1-1.4-1.4A1.4,1.4,0,0,1,2297.3,1339.9Z" transform="translate(-2037 -1218.3)"/><path id="f032_032" class="cls-22" d="M2521.5,1380.8a1.4,1.4,0,0,1-1.4,1.4,1.4,1.4,0,1,1,0-2.8A1.4,1.4,0,0,1,2521.5,1380.8Z" transform="translate(-2037 -1218.3)"/><path id="f031_031" class="cls-22" d="M2329.4,1423.6a1.4,1.4,0,1,1-2.8,0,1.4,1.4,0,0,1,2.8,0Z" transform="translate(-2037 -1218.3)"/><path id="f030_030" class="cls-22" d="M2252.5,1326.7a1.4,1.4,0,1,1-2.8,0,1.4,1.4,0,0,1,2.8,0Z" transform="translate(-2037 -1218.3)"/><path id="f029_029" class="cls-22" d="M2077.5,1413.1a1.4,1.4,0,0,1-2.8,0,1.4,1.4,0,1,1,2.8,0Z" transform="translate(-2037 -1218.3)"/><path id="f028_028" class="cls-23" d="M2466.8,1541.2a1.4,1.4,0,0,1-1.4,1.4,1.4,1.4,0,1,1,0-2.8A1.4,1.4,0,0,1,2466.8,1541.2Z" transform="translate(-2037 -1218.3)"/><path id="f027_starbucks" class="cls-23" d="M2419.2,1525.4a1.4,1.4,0,1,1-2.8,0,1.4,1.4,0,1,1,2.8,0Z" transform="translate(-2037 -1218.3)"/><path id="f026_026" class="cls-23" d="M2353.9,1521.4a1.4,1.4,0,0,1-1.4,1.4,1.4,1.4,0,1,1,0-2.8A1.4,1.4,0,0,1,2353.9,1521.4Z" transform="translate(-2037 -1218.3)"/><path id="f025_025" class="cls-23" d="M2242.3,1509.6a1.4,1.4,0,1,1-1.4-1.4A1.4,1.4,0,0,1,2242.3,1509.6Z" transform="translate(-2037 -1218.3)"/><path id="f024_qlbzdg" class="cls-23" d="M2246.9,1274.9a1.4,1.4,0,1,1-1.4-1.4A1.4,1.4,0,0,1,2246.9,1274.9Z" transform="translate(-2037 -1218.3)"/><path id="f023_nautica" class="cls-24" d="M2297.3,1364.6a1.4,1.4,0,1,1-1.4-1.4A1.4,1.4,0,0,1,2297.3,1364.6Z" transform="translate(-2037 -1218.3)"/><path id="f022_bmqt" class="cls-24" d="M2289.8,1321.2a1.4,1.4,0,1,1-1.4-1.4A1.4,1.4,0,0,1,2289.8,1321.2Z" transform="translate(-2037 -1218.3)"/><path id="f021_loho" class="cls-24" d="M2297.3,1294.9a1.4,1.4,0,1,1-1.4-1.4A1.4,1.4,0,0,1,2297.3,1294.9Z" transform="translate(-2037 -1218.3)"/><path id="f020_ztl" class="cls-24" d="M2542.6,1421a1.4,1.4,0,0,1-1.4,1.4,1.4,1.4,0,1,1,0-2.8A1.4,1.4,0,0,1,2542.6,1421Z" transform="translate(-2037 -1218.3)"/><path id="f019_019" class="cls-24" d="M2562.7,1511.9a1.4,1.4,0,1,1-1.4-1.4A1.4,1.4,0,0,1,2562.7,1511.9Z" transform="translate(-2037 -1218.3)"/><path id="f018_annekaren" class="cls-24" d="M2509.8,1487.5a1.4,1.4,0,0,1-1.4,1.4,1.4,1.4,0,1,1,0-2.8A1.4,1.4,0,0,1,2509.8,1487.5Z" transform="translate(-2037 -1218.3)"/><path id="f017_republicco" class="cls-24" d="M2450.2,1501.1a1.5,1.5,0,0,1-1.5,1.4,1.5,1.5,0,0,1-1.4-1.4,1.5,1.5,0,1,1,2.9,0Z" transform="translate(-2037 -1218.3)"/><path id="f016_016" class="cls-24" d="M2371.8,1478.9a1.4,1.4,0,0,1-1.4,1.4,1.4,1.4,0,1,1,0-2.8A1.4,1.4,0,0,1,2371.8,1478.9Z" transform="translate(-2037 -1218.3)"/><path id="f015_hazzys" class="cls-24" d="M2367.8,1423.6a1.4,1.4,0,1,1-2.8,0,1.4,1.4,0,0,1,2.8,0Z" transform="translate(-2037 -1218.3)"/><path id="f014_casio" class="cls-24" d="M2291.3,1521.4a1.4,1.4,0,1,1-1.4-1.4A1.4,1.4,0,0,1,2291.3,1521.4Z" transform="translate(-2037 -1218.3)"/><path id="f013_013" class="cls-24" d="M2294.4,1467.5a1.4,1.4,0,1,1-2.8,0,1.4,1.4,0,0,1,2.8,0Z" transform="translate(-2037 -1218.3)"/><path id="f012_012" class="cls-24" d="M2298.3,1428.5a1.5,1.5,0,0,1-1.5,1.4,1.5,1.5,0,0,1-1.4-1.4,1.5,1.5,0,1,1,2.9,0Z" transform="translate(-2037 -1218.3)"/><path id="f011_fila" class="cls-24" d="M2242.3,1428.5a1.4,1.4,0,0,1-2.8,0,1.4,1.4,0,1,1,2.8,0Z" transform="translate(-2037 -1218.3)"/><path id="f010_010" class="cls-24" d="M2194.4,1428.5a1.4,1.4,0,0,1-2.8,0,1.4,1.4,0,1,1,2.8,0Z" transform="translate(-2037 -1218.3)"/><path id="f009_c_a" data-name="f009_c&amp;a" class="cls-24" d="M2109.7,1501.2a1.4,1.4,0,1,1-1.4-1.4A1.4,1.4,0,0,1,2109.7,1501.2Z" transform="translate(-2037 -1218.3)"/><path id="f008_levis" class="cls-24" d="M2075.6,1383.9a1.4,1.4,0,1,1-1.4-1.4A1.4,1.4,0,0,1,2075.6,1383.9Z" transform="translate(-2037 -1218.3)"/><path id="f007_koradior" class="cls-24" d="M2075.6,1361.3a1.4,1.4,0,1,1-1.4-1.4A1.4,1.4,0,0,1,2075.6,1361.3Z" transform="translate(-2037 -1218.3)"/><path id="f006_tianyi" class="cls-24" d="M2076.6,1334a1.4,1.4,0,0,1-1.4,1.4,1.4,1.4,0,1,1,0-2.8A1.4,1.4,0,0,1,2076.6,1334Z" transform="translate(-2037 -1218.3)"/><path id="f005_005" class="cls-24" d="M2252.5,1296.6a1.4,1.4,0,0,1-2.8,0,1.4,1.4,0,1,1,2.8,0Z" transform="translate(-2037 -1218.3)"/><path id="f004_pucca" class="cls-24" d="M2246.9,1249.6a1.4,1.4,0,1,1-1.4-1.4A1.4,1.4,0,0,1,2246.9,1249.6Z" transform="translate(-2037 -1218.3)"/><path id="f003_yankeecandle" class="cls-24" d="M2227.8,1362.9a1.4,1.4,0,1,1-1.4-1.4A1.4,1.4,0,0,1,2227.8,1362.9Z" transform="translate(-2037 -1218.3)"/><path id="f002_uniqlo" class="cls-24" d="M2195.2,1293.4a1.5,1.5,0,0,1-1.5,1.4,1.4,1.4,0,1,1,0-2.8A1.5,1.5,0,0,1,2195.2,1293.4Z" transform="translate(-2037 -1218.3)"/><path id="f001_vans" class="cls-24" d="M2112.1,1283.7a1.4,1.4,0,1,1-1.4-1.4A1.4,1.4,0,0,1,2112.1,1283.7Z" transform="translate(-2037 -1218.3)"/></g></svg>